<mxfile host="app.diagrams.net" modified="2024-04-19T08:24:09.773Z" agent="Mozilla/5.0 (Windows NT 10.0; Win64; x64) AppleWebKit/537.36 (KHTML, like Gecko) Chrome/123.0.0.0 Safari/537.36 Edg/123.0.0.0" version="24.2.5" etag="EUz9d6b2NS5M6z7LgE0e" type="github">
  <diagram name="第 1 页" id="YjYtX7tzhT0VxWiRHVgt">
    <mxGraphModel>
      <root>
        <mxCell id="0" />
        <mxCell id="1" parent="0" />
      </root>
    </mxGraphModel>
  </diagram>
</mxfile>
